<?xml version="1.0" standalone="no"?>
<!DOCTYPE svg PUBLIC "-//W3C//DTD SVG 20010904//EN"
 "http://www.w3.org/TR/2001/REC-SVG-20010904/DTD/svg10.dtd">
<svg version="1.0" xmlns="http://www.w3.org/2000/svg"
 width="700.000000pt" height="700.000000pt" viewBox="0 0 700.000000 700.000000"
 preserveAspectRatio="xMidYMid meet">
<metadata>
Created by potrace 1.11, written by Peter Selinger 2001-2013
</metadata>
<g transform="translate(0.000000,700.000000) scale(0.100000,-0.100000)"
fill="#000000" stroke="none">
<path d="M3278 6996 c-1 -2 -39 -6 -83 -10 -89 -7 -144 -13 -225 -26 -30 -5
-75 -12 -100 -16 -47 -6 -49 -7 -90 -17 -14 -4 -65 -16 -115 -28 -330 -76
-720 -241 -1020 -430 -696 -437 -1220 -1109 -1475 -1889 -28 -87 -75 -256 -85
-311 -3 -13 -12 -58 -20 -99 -8 -41 -17 -89 -19 -105 -3 -17 -7 -46 -11 -66
-6 -40 -10 -75 -22 -199 -15 -163 -8 -592 12 -711 2 -13 6 -46 9 -74 9 -78 23
-156 51 -285 23 -107 88 -333 114 -395 5 -11 26 -65 46 -120 65 -172 213 -462
314 -615 271 -411 605 -747 1008 -1016 77 -52 145 -94 149 -94 4 0 15 -6 23
-14 29 -25 304 -161 431 -213 165 -67 424 -150 563 -179 92 -19 211 -41 272
-49 22 -2 56 -7 75 -10 186 -26 697 -27 837 -1 17 3 104 16 148 21 178 23 499
113 735 206 136 54 413 189 463 226 17 13 35 23 39 23 5 0 14 5 21 10 7 6 62
44 124 84 251 167 495 380 675 590 34 39 64 73 68 76 14 11 141 181 202 270
84 123 144 222 210 351 49 94 75 151 136 289 56 128 148 420 178 565 17 81 54
301 59 350 4 33 9 71 11 85 9 46 11 524 4 605 -12 128 -21 202 -25 227 -3 13
-8 43 -11 68 -3 25 -9 61 -14 80 -5 19 -12 51 -15 70 -11 63 -64 269 -79 305
-8 19 -13 35 -11 35 12 0 -112 314 -180 455 -220 455 -530 852 -925 1183 -68
57 -307 232 -351 257 -10 5 -49 29 -86 51 -86 53 -298 163 -383 199 -36 15
-83 35 -105 45 -119 52 -416 142 -580 175 -44 9 -89 19 -100 21 -11 2 -38 6
-60 9 -22 3 -51 7 -65 10 -13 2 -52 7 -86 11 -33 3 -74 8 -90 10 -32 5 -540
14 -546 10z m522 -920 c19 -3 55 -8 79 -11 104 -13 311 -61 431 -101 401 -134
728 -339 1035 -648 242 -243 434 -533 559 -846 44 -109 120 -355 131 -424 3
-17 8 -42 10 -56 3 -14 8 -36 10 -50 5 -24 10 -55 21 -145 14 -110 19 -406 9
-500 -2 -22 -6 -60 -9 -85 -58 -547 -305 -1078 -692 -1489 -79 -84 -247 -236
-314 -284 -14 -9 -53 -38 -88 -63 -153 -110 -379 -229 -567 -299 -55 -21 -104
-38 -110 -40 -5 -1 -17 -5 -25 -8 -27 -11 -244 -65 -290 -72 -48 -8 -70 -12
-110 -20 -25 -5 -108 -14 -190 -20 -65 -6 -326 -6 -385 0 -119 11 -219 23
-245 30 -8 3 -33 7 -55 10 -99 15 -325 81 -465 137 -323 128 -609 317 -860
568 -140 139 -165 167 -259 293 -162 217 -298 476 -381 729 -33 101 -86 310
-95 378 -3 25 -8 52 -10 60 -4 15 -11 80 -21 190 -6 78 -6 316 1 397 29 344
137 718 287 993 23 41 47 87 55 102 26 51 158 242 218 318 86 108 304 324 416
412 312 247 736 446 1069 503 19 3 51 10 70 15 38 10 88 17 190 26 36 4 67 8
69 10 7 7 470 -3 511 -10z"/>
<path d="M4500 3050 c-101 -24 -151 -43 -221 -86 -205 -124 -334 -342 -344
-578 -9 -248 99 -468 304 -617 156 -113 377 -153 586 -105 85 19 222 92 292
156 162 147 243 337 237 555 -6 222 -92 395 -268 538 -157 128 -390 182 -586
137z"/>
</g>
</svg>
