<?xml version="1.0" standalone="no"?>
<!DOCTYPE svg PUBLIC "-//W3C//DTD SVG 20010904//EN"
 "http://www.w3.org/TR/2001/REC-SVG-20010904/DTD/svg10.dtd">
<svg version="1.0" xmlns="http://www.w3.org/2000/svg"
 width="256.000000pt" height="256.000000pt" viewBox="0 0 256.000000 256.000000"
 preserveAspectRatio="xMidYMid meet">
<metadata>
Created by potrace 1.11, written by Peter Selinger 2001-2013
</metadata>
<g transform="translate(0.000000,256.000000) scale(0.100000,-0.100000)"
fill="#000000" stroke="none">
<path d="M264 2539 c-78 -27 -149 -80 -196 -149 -70 -102 -69 -94 -66 -882 l3
-703 32 -67 c35 -75 100 -146 162 -177 100 -51 94 -51 1006 -51 l850 0 252
-252 253 -253 0 1112 c0 1102 0 1113 -21 1176 -26 81 -79 152 -149 199 -103
70 -67 68 -1120 68 -925 -1 -946 -1 -1006 -21z m1212 -195 c266 -64 490 -265
584 -521 130 -358 1 -759 -314 -975 -404 -278 -973 -135 -1200 302 -59 113
-86 212 -93 337 -25 435 276 804 710 874 74 11 232 3 313 -17z"/>
<path d="M1180 2154 c-134 -26 -240 -83 -341 -183 -122 -122 -179 -261 -179
-436 0 -174 57 -313 180 -435 128 -128 261 -184 440 -184 179 0 312 56 440
184 123 122 180 261 180 435 0 175 -57 314 -179 436 -126 126 -245 178 -416
184 -55 2 -111 1 -125 -1z m461 -709 c68 -36 105 -131 80 -208 -16 -46 -80
-104 -125 -113 -131 -24 -236 87 -204 215 13 51 63 106 111 120 39 12 99 6
138 -14z"/>
</g>
</svg>
